<svg xmlns="http://www.w3.org/2000/svg" viewBox="0 0 128 22" width="512" height="88">
  <path fill="#ff9e1f" fill-rule="evenodd" d="M8.89 16.77V9.52H3.2v7.25H0V.1h3.2V6.8H8.9V.1h3.2v16.67h-3.2zM16.18 16.77V.1h10.73v2.65h-7.53v4.11h6.9v2.6h-6.9v4.65h7.73v2.66H16.18z" clip-rule="evenodd"/>
  <path fill="#ff9e1f" d="M33.63.1h-3.2v16.69h3.2V.09z"/>
  <path fill="#ff9e1f" fill-rule="evenodd" d="M37.3 5.82V3.4c0-1.11.32-1.94.95-2.53.62-.59 1.52-.88 2.68-.88h4.5c1.13 0 2 .3 2.62.88.62.59.93 1.42.93 2.53v1.7h-3.16V3.44c0-.55-.31-.83-.95-.83H41.4c-.63 0-.95.28-.95.83v1.9c0 .29.03.48.13.61.09.13.27.23.56.3l5.61 1.4c1.6.4 2.4 1.35 2.4 2.82v3c0 1.1-.32 1.94-.94 2.52-.62.59-1.52.88-2.68.88H40.7c-1.14 0-2.03-.29-2.63-.88-.6-.58-.9-1.41-.9-2.52v-1.55h3.14v1.51c0 .56.32.84.96.84h3.74c.64 0 .97-.28.97-.84v-2.31c0-.44-.23-.73-.72-.83l-5.73-1.47c-1.5-.39-2.23-1.4-2.23-3.01zM52.73 16.77V.1h10.73v2.65h-7.53v4.11h6.9v2.6h-6.9v4.65h7.73v2.66H52.73zM76.14 16.77L69.99 6v10.77h-3V.1h2.95l6.13 10.74V.1h3.02v16.67h-2.95zM84.8 19.12l-1.35-.35V5.2h9.47c1.18 0 2.07.3 2.69.9.62.6.92 1.45.92 2.57v1.96c0 1.32-.6 2.18-1.81 2.6 1.46.3 2.18 1.18 2.18 2.66v2.5c0 1.13-.32 2-.92 2.58-.63.59-1.51.88-2.69.88h-8.48v-2.73zm7.62-11.28h-5.75v4.14h5.8c.62 0 .92-.28.92-.83V8.73c-.01-.6-.33-.9-.97-.9zm.39 6.75h-6.14v4.66h6.12c.64 0 .96-.31.96-.92v-2.9c0-.55-.32-.84-.94-.84zM128 18.46c0 1.13-.3 2-.92 2.61-.62.6-1.53.91-2.69.91h-4.52c-1.18 0-2.06-.3-2.69-.9-.62-.61-.93-1.48-.93-2.62V8.64c0-1.13.31-2 .94-2.61.62-.6 1.52-.91 2.68-.91h4.52c1.18 0 2.07.3 2.69.91.62.6.92 1.47.92 2.6v1.73h-3.15V8.7c0-.62-.32-.93-.96-.93h-3.49c-.65 0-.95.31-.95.93v9.68c0 .62.32.93.95.93h3.5c.63 0 .95-.3.95-.93v-2.54h-2.52v-2.46h5.65v5.08h.02zM112.49 12.48l-.69-.24-.68-.25V5.23h-3.21V12l1.24.5.14.1v5.78c0 .62-.32.92-.96.92h-3.77c-.64 0-.96-.3-.96-.92V12.6l-1.3-.5V5.24h-1.9v13.25c0 1.12.32 2 .94 2.6.62.61 1.53.92 2.68.92h4.85c1.17 0 2.04-.31 2.68-.91.62-.6.94-1.47.94-2.61v-6z" clip-rule="evenodd"/>
</svg>
